# xmcd
#
# Track frame offsets: 
#        150
#        28880
#        62770
#        110625
#        135355
#        161817
#        217480
#        243675
#        268130
#        288690
#        319420
#
# Disc length: 4613 seconds
#
# Revision: 1
# Processed by: cddbd v1.5.2PL0 Copyright (c) Steve Scherf et al.
# Submitted via: ExactAudioCopyFreeDBPlugin 1.0
#
DISCID=bd12030b
DTITLE=ScoLoHoFo - Oh!
DYEAR=2002
DGENRE=Jazz
TTITLE0=Oh!
TTITLE1=Right about now
TTITLE2=The winding way
TTITLE3=Bittersweet
TTITLE4=Shorter form
TTITLE5=New Amsterdam
TTITLE6=In your arms
TTITLE7=The dawn of time
TTITLE8=Brandyn
TTITLE9=Faces
TTITLE10=Oh I see
EXTD=YEAR: 2002
EXTT0=
EXTT1=
EXTT2=
EXTT3=
EXTT4=
EXTT5=
EXTT6=
EXTT7=
EXTT8=
EXTT9=
EXTT10=
PLAYORDER=
